<mxfile host="app.diagrams.net" modified="2021-05-29T10:49:47.121Z" agent="5.0 (Macintosh; Intel Mac OS X 10_15_7) AppleWebKit/537.36 (KHTML, like Gecko) Chrome/90.0.4430.212 Safari/537.36" etag="wrFTj2VtKHE8AqejRc26" version="14.6.6" type="github">
  <diagram id="7MdC3ZZ3U70urAhB1zaP" name="Page-1">
    <mxGraphModel dx="373" dy="834" grid="1" gridSize="10" guides="1" tooltips="1" connect="1" arrows="1" fold="1" page="1" pageScale="1" pageWidth="827" pageHeight="1169" math="0" shadow="0">
      <root>
        <mxCell id="0" />
        <mxCell id="1" parent="0" />
        <mxCell id="xm7x4mYbdnGBSEJvrkLA-15" value="" style="rounded=1;whiteSpace=wrap;html=1;fillColor=#f5f5f5;strokeColor=#666666;fontColor=#333333;" vertex="1" parent="1">
          <mxGeometry x="115" y="380" width="390" height="330" as="geometry" />
        </mxCell>
        <mxCell id="xm7x4mYbdnGBSEJvrkLA-6" style="edgeStyle=orthogonalEdgeStyle;rounded=0;orthogonalLoop=1;jettySize=auto;html=1;comic=1;" edge="1" parent="1" source="xm7x4mYbdnGBSEJvrkLA-1" target="xm7x4mYbdnGBSEJvrkLA-5">
          <mxGeometry relative="1" as="geometry" />
        </mxCell>
        <mxCell id="xm7x4mYbdnGBSEJvrkLA-1" value="" style="ellipse;whiteSpace=wrap;html=1;aspect=fixed;comic=1;fillColor=#dae8fc;strokeColor=#6c8ebf;" vertex="1" parent="1">
          <mxGeometry x="270" y="270" width="80" height="80" as="geometry" />
        </mxCell>
        <mxCell id="xm7x4mYbdnGBSEJvrkLA-2" value="Client" style="text;html=1;strokeColor=none;fillColor=none;align=center;verticalAlign=middle;whiteSpace=wrap;rounded=0;comic=1;" vertex="1" parent="1">
          <mxGeometry x="290" y="300" width="40" height="20" as="geometry" />
        </mxCell>
        <mxCell id="xm7x4mYbdnGBSEJvrkLA-11" style="edgeStyle=orthogonalEdgeStyle;rounded=0;orthogonalLoop=1;jettySize=auto;html=1;opacity=60;comic=1;" edge="1" parent="1" source="xm7x4mYbdnGBSEJvrkLA-5" target="xm7x4mYbdnGBSEJvrkLA-10">
          <mxGeometry relative="1" as="geometry" />
        </mxCell>
        <mxCell id="xm7x4mYbdnGBSEJvrkLA-5" value="Redis" style="rounded=1;whiteSpace=wrap;html=1;comic=1;fillColor=#d5e8d4;strokeColor=#82b366;" vertex="1" parent="1">
          <mxGeometry x="225" y="420" width="170" height="60" as="geometry" />
        </mxCell>
        <mxCell id="xm7x4mYbdnGBSEJvrkLA-14" style="edgeStyle=orthogonalEdgeStyle;rounded=0;orthogonalLoop=1;jettySize=auto;html=1;exitX=0.5;exitY=1;exitDx=0;exitDy=0;opacity=60;comic=1;" edge="1" parent="1" source="xm7x4mYbdnGBSEJvrkLA-10" target="xm7x4mYbdnGBSEJvrkLA-13">
          <mxGeometry relative="1" as="geometry" />
        </mxCell>
        <mxCell id="xm7x4mYbdnGBSEJvrkLA-10" value="内存" style="rounded=1;whiteSpace=wrap;html=1;comic=1;fillColor=#fff2cc;strokeColor=#d6b656;" vertex="1" parent="1">
          <mxGeometry x="225" y="525" width="170" height="60" as="geometry" />
        </mxCell>
        <mxCell id="xm7x4mYbdnGBSEJvrkLA-13" value="磁盘" style="shape=cylinder3;whiteSpace=wrap;html=1;boundedLbl=1;backgroundOutline=1;size=15;comic=1;fillColor=#e1d5e7;strokeColor=#9673a6;" vertex="1" parent="1">
          <mxGeometry x="240" y="620" width="140" height="70" as="geometry" />
        </mxCell>
        <mxCell id="xm7x4mYbdnGBSEJvrkLA-16" value="发送写命令" style="text;html=1;strokeColor=none;fillColor=none;align=center;verticalAlign=middle;whiteSpace=wrap;rounded=0;" vertex="1" parent="1">
          <mxGeometry x="300" y="350" width="100" height="30" as="geometry" />
        </mxCell>
        <mxCell id="xm7x4mYbdnGBSEJvrkLA-17" value="第一步，执行命令修改数据写入内存" style="text;html=1;strokeColor=none;fillColor=none;align=center;verticalAlign=middle;whiteSpace=wrap;rounded=0;" vertex="1" parent="1">
          <mxGeometry x="320" y="490" width="100" height="30" as="geometry" />
        </mxCell>
        <mxCell id="xm7x4mYbdnGBSEJvrkLA-18" value="第二步，保存被执行的命令，写入磁盘中" style="text;html=1;strokeColor=none;fillColor=none;align=center;verticalAlign=middle;whiteSpace=wrap;rounded=0;" vertex="1" parent="1">
          <mxGeometry x="320" y="585" width="130" height="35" as="geometry" />
        </mxCell>
      </root>
    </mxGraphModel>
  </diagram>
</mxfile>
